<?xml version="1.0" encoding="UTF-8"?>
<svg id="b" data-name="Layer 2" xmlns="http://www.w3.org/2000/svg" width="433.408" height="489.535" viewBox="0 0 433.408 489.535">
  <g id="c" data-name="Layer 10">
    <g>
      <path d="m399.294,0H34.113C15.303,0,0,14.803,0,32.999v345.317c0,13.045,7.968,24.888,20.298,30.171l182.591,78.226c4.389,1.882,9.101,2.821,13.814,2.821s9.425-.941,13.814-2.821l182.591-78.226c12.331-5.283,20.299-17.127,20.299-30.171V32.999c0-18.195-15.303-32.999-34.114-32.999Z"/>
      <g>
        <path d="m335.747,228.431c-31.767-104.863-73.261-158.321-120.189-158.892-21.328.315-40.27,11.701-59.448,33.841-16.2,18.703-31.373,44.937-45.097,77.974-19.867,47.824-32.714,101.721-36.743,120.934h279.054c-3.251-12.881-8.539-44.021-17.577-73.857Z" fill="#94c83d"/>
        <path d="m388.679,31.776H44.729c-7.964,0-14.421,5.876-14.421,13.125v256.834h3.077c3.4-13.537,67.096-254.157,182.173-256.509h0c115.077,2.352,177.177,242.972,180.577,256.509h6.964V44.901c0-7.249-6.456-13.125-14.42-13.125Z" fill="#94c83d"/>
      </g>
    </g>
  </g>
</svg>